HIERARCHY
ROOT Pelvis
{
	OFFSET 0.000000 0.000000 0.000000
	CHANNELS 6 Xposition Yposition Zposition Xrotation Yrotation Zrotation
	JOINT LeftUpLeg_virtual
	{
		OFFSET 0.000000 0.000000 0.000000
		CHANNELS 3 Xrotation Yrotation Zrotation
		JOINT LeftUpLeg
		{
			OFFSET 18.735201 -5.666702 -4.541200
			CHANNELS 3 Xrotation Yrotation Zrotation
			JOINT LeftLeg
			{
				OFFSET -0.021200 -31.938179 0.493100
				CHANNELS 3 Xrotation Yrotation Zrotation
				JOINT LeftFoot
				{
					OFFSET 0.021200 -31.938179 -4.336299
					CHANNELS 3 Xrotation Yrotation Zrotation
					JOINT LeftToeBase
					{
						OFFSET 0.943001 -26.722000 15.023500
						CHANNELS 3 Xrotation Yrotation Zrotation
						End Site
						{
							OFFSET 0 0 0
						}
					}
				}
			}
		}
	}
	JOINT RightUpLeg_virtual
	{
		OFFSET 0.000000 0.000000 0.000000
		CHANNELS 3 Xrotation Yrotation Zrotation
		JOINT RightUpLeg
		{
			OFFSET -18.735201 -5.666702 -4.541200
			CHANNELS 3 Xrotation Yrotation Zrotation
			JOINT RightLeg
			{
				OFFSET 0.018946 -31.938133 0.493100
				CHANNELS 3 Xrotation Yrotation Zrotation
				JOINT RightFoot
				{
					OFFSET -0.018946 -31.938126 -4.336299
					CHANNELS 3 Xrotation Yrotation Zrotation
					JOINT RightToeBase
					{
						OFFSET -0.943001 -26.722004 15.023500
						CHANNELS 3 Xrotation Yrotation Zrotation
						End Site
						{
							OFFSET 0 0 0
						}
					}
				}
			}
		}
	}
	JOINT Hips_virtual
	{
		OFFSET 0.000000 0.000000 0.000000
		CHANNELS 3 Xrotation Yrotation Zrotation
		JOINT Hips
		{
			OFFSET -0.000000 -0.000000 -0.000000
			CHANNELS 3 Xrotation Yrotation Zrotation
			JOINT Spine
			{
				OFFSET 0.000000 10.199997 -0.299500
				CHANNELS 3 Xrotation Yrotation Zrotation
				JOINT Spine1
				{
					OFFSET 0.000000 11.900002 -1.516600
					CHANNELS 3 Xrotation Yrotation Zrotation
					JOINT Spine2
					{
						OFFSET 0.000000 13.600006 -2.842500
						CHANNELS 3 Xrotation Yrotation Zrotation
						JOINT Neck_virtual
						{
							OFFSET 0.000000 0.000000 0.000000
							CHANNELS 3 Xrotation Yrotation Zrotation
							JOINT Neck
							{
								OFFSET 0.000000 9.624100 -2.890100
								CHANNELS 3 Xrotation Yrotation Zrotation
								JOINT Head
								{
									OFFSET 0.000000 14.068802 -1.351900
									CHANNELS 3 Xrotation Yrotation Zrotation
									End Site
									{
										OFFSET 0 0 0
									}
								}
							}
						}
						JOINT LeftShoulder_virtual
						{
							OFFSET 0.000000 0.000000 0.000000
							CHANNELS 3 Xrotation Yrotation Zrotation
							JOINT LeftShoulder
							{
								OFFSET 15.263000 10.923401 -0.547700
								CHANNELS 3 Xrotation Yrotation Zrotation
								JOINT LeftArm
								{
									OFFSET 25.438599 -2.830597 -13.032500
									CHANNELS 3 Xrotation Yrotation Zrotation
									JOINT LeftForeArm
									{
										OFFSET 29.960503 0.000000 0.000000
										CHANNELS 3 Xrotation Yrotation Zrotation
										JOINT LeftHand
										{
											OFFSET 27.849251 0.000000 0.000000
											CHANNELS 3 Xrotation Yrotation Zrotation
											End Site
											{
												OFFSET 0 0 0
											}
										}
									}
								}
							}
						}
						JOINT RightShoulder_virtual
						{
							OFFSET 0.000000 0.000000 0.000000
							CHANNELS 3 Xrotation Yrotation Zrotation
							JOINT RightShoulder
							{
								OFFSET -15.263000 10.923401 -0.547700
								CHANNELS 3 Xrotation Yrotation Zrotation
								JOINT RightArm
								{
									OFFSET -25.438599 -2.830597 -13.032500
									CHANNELS 3 Xrotation Yrotation Zrotation
									JOINT RightForeArm
									{
										OFFSET -29.960503 0.000000 0.000000
										CHANNELS 3 Xrotation Yrotation Zrotation
										JOINT RightHand
										{
											OFFSET -27.849251 0.000000 0.000000
											CHANNELS 3 Xrotation Yrotation Zrotation
											End Site
											{
												OFFSET 0 0 0
											}
										}
									}
								}
							}
						}
					}
				}
			}
		}
	}
}
MOTION
Frames: 10
Frame Time: 0.03333333
-15.421856 19.251850 -73.355255 0.000000 0.000000 0.000000 -87.131719 26.579278 5.383792 -72.685548 1.382382 36.294054 72.884197 11.466225 -2.220853 26.528882 8.499360 -6.890700 0.000000 0.000000 0.000000 -87.131719 26.579278 5.383792 -56.107607 17.921265 -43.233578 108.571881 5.620311 6.568274 35.986204 6.404520 33.554329 0.000000 0.000000 0.000000 -87.131719 26.579278 5.383792 0.000000 0.000001 0.000000 54.055531 10.971312 -2.716703 20.535749 3.211062 0.186196 0.000000 0.000000 0.000000 20.612230 2.862300 0.333963 2.540866 0.131338 -0.874291 0.000000 0.000000 0.000000 20.612230 2.862300 0.333963 0.690087 -7.698574 -13.129587 -23.121924 -24.042643 -24.824232 -0.000051 -63.058806 -0.000042 0.000000 0.000000 0.000000 20.612230 2.862300 0.333963 0.136767 13.961787 14.788466 -26.720448 -13.516593 33.282112 0.000003 41.763048 -0.000011 0.000000 0.000000 0.000000 
-15.218523 19.186993 -75.034454 0.000000 0.000000 0.000000 -91.537225 26.156751 5.790318 -69.331365 0.613735 35.397578 70.583776 11.163113 -0.748790 28.665177 8.406447 -4.500151 0.000000 0.000000 0.000000 -91.537225 26.156751 5.790318 -51.875382 17.556769 -39.588316 107.017760 5.294472 4.238733 34.629551 5.522517 34.111180 0.000000 0.000000 0.000000 -91.537225 26.156751 5.790318 0.000000 -0.000001 0.000000 53.930754 11.961945 -1.826187 20.987658 3.430233 0.332321 0.000000 0.000000 0.000000 21.083088 3.010460 0.480113 2.410029 0.133645 -0.988806 0.000000 0.000000 0.000000 21.083088 3.010460 0.480113 0.654637 -7.640295 -13.060566 -19.361648 -24.125236 -21.499006 -0.000026 -64.350812 -0.000026 0.000000 0.000000 0.000000 21.083088 3.010460 0.480113 0.281188 14.030646 13.544982 -21.025802 -14.046612 33.984351 -0.000004 42.419706 0.000010 0.000000 0.000000 0.000000 
-14.827723 19.144218 -76.766335 0.000000 0.000000 0.000000 -96.167704 25.688108 6.344273 -65.060154 0.232386 35.105219 68.041327 10.540456 0.601265 30.669670 7.550889 -3.432012 0.000000 0.000000 0.000000 -96.167704 25.688108 6.344273 -47.739553 17.668163 -35.989168 106.102030 4.399363 1.817435 33.322611 4.626068 33.978945 0.000000 0.000000 0.000000 -96.167704 25.688108 6.344273 0.000000 0.000000 0.000000 53.770316 12.640843 -0.845201 21.302506 3.531566 0.486729 0.000000 0.000000 0.000000 21.413456 3.045618 0.639508 2.322458 0.131517 -1.078282 0.000000 0.000000 0.000000 21.413456 3.045618 0.639508 0.618662 -7.705184 -13.035392 -16.051279 -24.091788 -18.542294 -0.000001 -64.438935 -0.000005 0.000000 0.000000 0.000000 21.413456 3.045618 0.639508 0.368028 14.232615 12.568251 -15.163283 -12.817752 34.004452 -0.000003 41.556893 -0.000003 0.000000 0.000000 0.000000 
-14.369579 19.146690 -78.487328 0.000000 0.000000 0.000000 -100.967831 25.312541 6.994198 -60.280258 -0.006075 35.517824 65.836904 9.830496 1.840400 31.796231 6.050646 -3.710462 0.000000 0.000000 0.000000 -100.967831 25.312541 6.994198 -43.202849 17.873620 -32.950263 105.533178 2.975654 -0.471053 32.041831 3.874526 33.729793 0.000000 0.000000 0.000000 -100.967831 25.312541 6.994198 0.000000 0.000001 0.000000 53.399717 12.904036 0.220081 21.392875 3.485087 0.638483 0.000000 0.000000 0.000000 21.512839 2.946439 0.804823 2.300673 0.128878 -1.132711 0.000000 0.000000 0.000000 21.512839 2.946439 0.804823 0.583245 -7.873912 -13.009945 -13.224164 -24.020100 -16.352813 0.000004 -63.453707 -0.000001 0.000000 0.000000 0.000000 21.512839 2.946439 0.804823 0.413011 14.399156 11.899806 -8.989448 -9.774898 33.560179 0.000000 39.122238 -0.000002 0.000000 0.000000 0.000000 
-13.944422 19.224693 -80.131523 0.000000 0.000000 0.000000 -105.800921 25.124586 7.651647 -55.509719 -0.302664 36.621664 64.281355 9.122845 2.997917 31.751398 4.218804 -4.984283 0.000000 0.000000 0.000000 -105.800921 25.124586 7.651647 -38.581153 17.938239 -30.466001 105.075931 1.208544 -2.479228 31.099395 3.342446 33.087943 0.000000 0.000000 0.000000 -105.800921 25.124586 7.651647 0.000001 -0.000002 0.000000 52.654386 12.709428 1.313997 21.192028 3.289840 0.753232 0.000000 0.000000 0.000000 21.312758 2.716130 0.941964 2.349391 0.127674 -1.147031 0.000000 0.000000 0.000000 21.312758 2.716130 0.941964 0.548374 -8.140326 -12.910354 -10.892204 -23.869730 -15.235348 -0.000022 -61.758318 -0.000005 0.000000 0.000000 0.000000 21.312758 2.716130 0.941964 0.431947 14.333480 11.516032 -2.584126 -5.159821 32.975925 -0.000001 35.399477 -0.000002 0.000000 0.000000 0.000000 
-13.643641 19.407509 -81.648338 0.000000 0.000000 0.000000 -110.458045 25.154987 8.234826 -51.206352 -0.784587 38.334710 63.462361 8.392522 4.082121 30.548322 2.440100 -6.810811 0.000000 0.000000 0.000000 -110.458045 25.154987 8.234826 -34.307706 17.743209 -28.388138 104.660881 -0.455740 -4.126630 30.524204 3.039575 31.863656 0.000000 0.000000 0.000000 -110.458045 25.154987 8.234826 0.000000 0.000000 0.000000 51.411630 12.053129 2.318321 20.665132 2.965677 0.775688 0.000000 0.000000 0.000000 20.778523 2.372928 0.992803 2.455258 0.127899 -1.123874 0.000000 0.000000 0.000000 20.778523 2.372928 0.992803 0.515762 -8.509664 -12.639105 -8.981951 -23.466305 -15.270134 -0.000008 -59.787583 -0.000020 0.000000 0.000000 0.000000 20.778523 2.372928 0.992803 0.436324 13.876424 11.373066 3.782507 0.535385 32.522909 -0.000002 30.979696 -0.000001 0.000000 0.000000 0.000000 
-13.544056 19.722771 -83.005173 0.000000 0.000000 0.000000 -114.689804 25.374894 8.700787 -47.681585 -1.478735 40.511030 63.260283 7.639282 5.063284 28.436844 1.005155 -8.830201 0.000000 0.000000 0.000000 -114.689804 25.374894 8.700787 -30.822738 17.232760 -26.480205 104.363959 -0.746833 -5.418281 30.198356 2.159767 30.479883 0.000000 0.000000 0.000000 -114.689804 25.374894 8.700787 0.000000 0.000000 0.000000 49.624388 10.941121 3.078157 19.813021 2.538002 0.647767 0.000000 0.000000 0.000000 19.912481 1.937059 0.895224 2.590544 0.128359 -1.073394 0.000000 0.000000 0.000000 19.912481 1.937059 0.895224 0.492898 -8.977881 -12.094587 -7.279190 -22.558949 -16.271218 0.000034 -57.917702 0.000023 0.000000 0.000000 0.000000 19.912481 1.937059 0.895224 0.434027 12.961608 11.430405 9.841221 6.566302 32.310124 0.000003 26.820073 0.000000 0.000000 0.000000 0.000000 
-13.628284 20.150826 -84.245705 0.000000 0.000000 0.000000 -118.260901 25.722629 9.039798 -45.611068 -2.005581 42.101033 62.657567 7.525533 5.952322 26.859417 0.057847 -9.417250 0.000000 0.000000 0.000000 -118.260901 25.722629 9.039798 -28.367229 16.743124 -24.806318 104.416920 -1.185864 -6.309459 29.775595 2.348718 28.224420 0.000000 0.000000 0.000000 -118.260901 25.722629 9.039798 -0.000000 0.000001 0.000001 47.343169 9.377431 3.473337 18.672424 2.021778 0.336008 0.000000 0.000000 0.000000 18.753294 1.419712 0.614295 2.720078 0.128024 -1.010759 0.000000 0.000000 0.000000 18.753294 1.419712 0.614295 0.494909 -9.501259 -11.204259 -5.456344 -20.928036 -17.869884 0.000022 -56.422034 0.000005 0.000000 0.000000 0.000000 18.753294 1.419712 0.614295 0.432195 11.644189 11.650085 15.569958 11.900518 32.210151 0.000000 24.382643 0.000001 0.000000 0.000000 0.000000 
-13.844572 20.665131 -85.411987 0.000000 0.000000 0.000000 -121.011199 26.119364 9.287432 -44.380346 -2.487524 43.743841 62.300116 7.632071 6.639300 24.768412 -0.581546 -10.242483 0.000000 0.000000 0.000000 -121.011199 26.119364 9.287432 -27.101246 16.476359 -23.335811 104.955774 -1.565018 -6.857848 29.228336 3.178468 25.556374 0.000000 0.000000 0.000000 -121.011199 26.119364 9.287432 0.000000 0.000001 0.000000 44.722921 7.345520 3.451461 17.311041 1.411749 -0.146462 0.000000 0.000000 0.000000 17.369905 0.817401 0.168534 2.809392 0.126782 -0.952067 0.000000 0.000000 0.000000 17.369905 0.817401 0.168534 0.538448 -9.973103 -9.961845 -3.179585 -18.500640 -19.681788 -0.000004 -55.463749 0.000006 0.000000 0.000000 0.000000 17.369905 0.817401 0.168534 0.438118 10.094220 11.981961 21.216509 15.450171 31.864772 -0.000001 25.231574 -0.000000 0.000000 0.000000 0.000000 
-14.131300 21.232155 -86.534897 0.000000 0.000000 0.000000 -122.900716 26.481823 9.501049 -43.735200 -2.751675 45.358914 61.936114 7.895980 7.098756 22.415006 -1.043984 -11.480996 0.000000 0.000000 0.000000 -122.900716 26.481823 9.501049 -27.018217 16.539950 -22.026458 106.008388 -1.117133 -7.173098 28.794838 3.437069 23.308492 0.000000 0.000000 0.000000 -122.900716 26.481823 9.501049 0.000000 0.000000 0.000000 41.989428 4.825806 3.046497 15.812098 0.684710 -0.737207 0.000000 0.000000 0.000000 15.846567 0.114609 -0.366275 2.831567 0.125313 -0.910046 0.000000 0.000000 0.000000 15.846567 0.114609 -0.366275 0.625793 -10.225538 -8.451729 -0.217564 -15.422688 -21.451561 0.000027 -55.057445 0.000033 0.000000 0.000000 0.000000 15.846567 0.114609 -0.366275 0.455649 8.552481 12.348843 26.845048 16.755356 30.963184 0.000000 29.607668 0.000000 0.000000 0.000000 0.000000 
